<svg width="24" height="24" viewBox="0 0 24 24" fill="none" xmlns="http://www.w3.org/2000/svg">
<path d="M4.46526 0.40419C4.33263 0.543137 4.11789 1.38945 4.0421 2.10314C3.96631 2.77893 4.02947 3.56208 4.2 4.14945L4.29474 4.47156L3.91579 5.00208C3.32842 5.82314 2.94316 6.70735 2.78526 7.60419C2.69684 8.08419 2.69684 9.54314 2.77895 10.2316C2.98105 11.88 3.54947 13.2189 4.45263 14.1916C5.6021 15.4421 6.98526 16.0484 9.58737 16.4526C9.73263 16.4779 9.85263 16.5158 9.85263 16.541C9.85263 16.5663 9.77053 16.6673 9.66947 16.7621C9.41053 17.0084 9.04421 17.7663 8.94316 18.2526L8.86105 18.6631L8.33053 18.84C7.95789 18.9663 7.61684 19.0295 7.2 19.0547C5.89895 19.1305 5.09684 18.6884 4.23158 17.4316C3.54316 16.4273 2.74105 15.8652 1.91368 15.8084C1.45895 15.7768 1.13684 15.8589 1.13684 15.9979C1.13684 16.1052 1.55368 16.4905 1.97053 16.781C2.45053 17.1095 2.93684 17.76 3.39158 18.6947C3.86526 19.661 4.23789 20.0968 4.89474 20.4442C5.86105 20.9495 6.93474 21.0568 8.51368 20.8042L8.77895 20.76V22.1937V23.621H12.7011H16.6232L16.5916 21.1768C16.56 18.5116 16.5284 18.2463 16.1811 17.4821C16.08 17.2547 15.8905 16.9516 15.7579 16.8063C15.6253 16.661 15.5368 16.5284 15.5558 16.5095C15.5747 16.4842 15.9032 16.421 16.2758 16.3579C18.3537 16.0168 19.8632 15.3347 20.8484 14.2989C21.3158 13.8 21.5558 13.44 21.9158 12.6758C22.4716 11.4884 22.7116 10.1558 22.6547 8.53261C22.6168 7.43998 22.4905 6.87156 22.08 6.03156C21.9284 5.71577 21.6442 5.24208 21.4484 4.96419L21.0884 4.47156L21.2274 3.9284C21.3853 3.30314 21.4105 2.22945 21.2842 1.61051C21.1326 0.852611 20.9684 0.385243 20.8421 0.347348C20.6716 0.290506 19.8505 0.423137 19.3705 0.581032C18.8589 0.745243 17.5705 1.37051 17.0653 1.69893L16.6611 1.96419L16.3389 1.86945C14.3179 1.30103 11.0779 1.30103 9.05684 1.86945L8.74105 1.95787L8.14105 1.59787C7.05474 0.941032 6.00631 0.511558 5.17895 0.378927C4.6421 0.296822 4.57263 0.296822 4.46526 0.40419Z" fill="black"/>
</svg>
