<svg width="24" height="24" viewBox="0 0 24 24" fill="none" xmlns="http://www.w3.org/2000/svg">
<g clip-path="url(#clip0_1357_877)">
<path d="M2.10317 0.909473C1.69896 1.0421 1.31369 1.28842 1.02948 1.59789C0.701062 1.95158 0.543167 2.26737 0.40422 2.81053C0.303167 3.21474 0.303167 3.26526 0.40422 3.70105C0.543167 4.28842 0.890535 4.83158 1.33896 5.16632C1.82527 5.52632 2.20422 5.65263 2.81054 5.65263C3.24633 5.65263 3.37264 5.62105 3.72633 5.45053C4.32633 5.16632 4.62948 4.87579 4.90738 4.30737C5.13475 3.85895 5.14738 3.78947 5.14738 3.25895C5.14106 2.53263 4.98317 2.09684 4.53475 1.61053C4.08633 1.11789 3.56211 0.877894 2.88001 0.846315C2.55159 0.827368 2.27369 0.852631 2.10317 0.909473Z" fill="black"/>
<path d="M16.8127 7.23158C16.0674 7.37053 15.6695 7.50316 14.9811 7.84421C14.4632 8.09684 14.2232 8.26105 13.8 8.66526C13.5095 8.94316 13.2 9.27158 13.1242 9.39789L12.979 9.63158L12.9474 8.62105L12.9158 7.61053H10.5474H8.17898L8.16003 15.3916L8.1474 23.1789H10.5474H12.9411L12.96 18.6442C12.979 14.4695 12.9916 14.0905 13.099 13.7684C13.5158 12.5116 14.4063 11.6842 15.5558 11.4884C16.68 11.2989 17.8232 11.9179 18.3727 12.9979C18.7895 13.8189 18.7769 13.7179 18.8021 18.6758L18.8274 23.1789H21.2527H23.6842V18.1074C23.6842 12.7074 23.6653 12.3284 23.3685 11.16C22.9453 9.52421 21.8337 8.21684 20.3306 7.59158C19.3263 7.17474 17.9179 7.03579 16.8127 7.23158Z" fill="black"/>
<path d="M0.315796 15.3789V23.1789H2.74738H5.17895V15.3789V7.57895H2.74738H0.315796V15.3789Z" fill="black"/>
</g>
<defs>
<clipPath id="clip0_1357_877">
<rect width="24" height="24" fill="white"/>
</clipPath>
</defs>
</svg>
