<svg width="24" height="24" viewBox="0 0 24 24" fill="none" xmlns="http://www.w3.org/2000/svg">
<g clip-path="url(#clip0_1357_873)">
<path d="M11.9748 6.13895C5.58952 9.32842 0.378993 11.9558 0.391624 11.9684C0.448467 12.0316 7.23794 13.6484 7.33268 13.6232C7.3832 13.6105 9.63162 12.0758 12.3222 10.2189C15.0127 8.36211 17.2548 6.82105 17.3053 6.78947C17.3558 6.76421 17.1979 6.94737 16.9579 7.20632C13.2632 11.0968 9.94741 14.6147 9.94741 14.6526C9.94741 14.7095 17.76 21.6695 17.7916 21.6379C17.8232 21.6126 23.6211 0.353685 23.6022 0.341053C23.5958 0.334738 18.3664 2.94316 11.9748 6.13895Z" fill="black"/>
<path d="M9.03162 20.0526C9.03162 21.9789 9.05056 23.5579 9.08214 23.5516C9.1453 23.5516 12.1579 19.4211 12.1579 19.3389C12.1579 19.2758 9.13898 16.5474 9.06951 16.5474C9.05056 16.5474 9.03162 18.1263 9.03162 20.0526Z" fill="black"/>
</g>
<defs>
<clipPath id="clip0_1357_873">
<rect width="24" height="24" fill="white"/>
</clipPath>
</defs>
</svg>
