<svg width="24" height="24" viewBox="0 0 24 24" fill="none" xmlns="http://www.w3.org/2000/svg">
<path d="M19.0736 0.410491C18.8463 0.454701 18.4547 0.524175 18.2084 0.568386C17.8042 0.631543 17.7473 0.656807 17.7473 0.776807C17.7473 0.903122 19.2568 9.68207 19.2821 9.70102C19.2884 9.70733 19.7305 9.63786 20.261 9.54944L21.2273 9.38523L21.1894 9.22102C21.1705 9.1326 20.8294 7.1747 20.4315 4.86312C20.0336 2.55154 19.6863 0.587333 19.6673 0.48628C19.6294 0.296807 19.6421 0.296807 19.0736 0.410491Z" fill="black"/>
<path d="M12.9789 2.75368C12.5999 3.01263 12.2463 3.25263 12.1957 3.27789C12.1326 3.31579 12.7326 4.24421 14.6841 7.11158C16.0989 9.19579 17.2673 10.9074 17.2799 10.92C17.3178 10.9642 18.8778 9.89052 18.8778 9.82105C18.8778 9.73263 13.8126 2.31789 13.7368 2.29894C13.6989 2.28631 13.3641 2.49473 12.9789 2.75368Z" fill="black"/>
<path d="M8.55793 7.38943C8.16003 8.0589 8.07793 8.23575 8.15372 8.27996C8.52635 8.51996 16.1179 12.9536 16.1306 12.9347C16.2 12.8526 17.0527 11.3684 17.0653 11.3179C17.0779 11.2673 9.41687 6.70732 9.12003 6.58732C9.08214 6.57469 8.82951 6.93469 8.55793 7.38943Z" fill="black"/>
<path d="M6.91581 11.141C6.80844 11.4694 6.42949 12.96 6.44844 12.9726C6.46107 12.9789 8.49476 13.5284 10.9579 14.1915C14.9684 15.2652 15.4484 15.3789 15.4863 15.2842C15.5748 15.0568 15.9348 13.6357 15.9095 13.6105C15.8969 13.5979 13.8695 13.0231 11.4127 12.3284C8.58318 11.5326 6.92844 11.0968 6.91581 11.141Z" fill="black"/>
<path d="M2.77893 18.7579V23.621H10.5474H18.3158V18.7579V13.8947H17.3368H16.3579V17.7789V21.6631H10.5474H4.73683L4.72419 17.7916L4.70525 13.9263L3.74525 13.9073L2.77893 13.8884V18.7579Z" fill="black"/>
<path d="M5.86736 16.1179C5.81684 16.6484 5.78526 17.0968 5.79157 17.1095C5.81684 17.1537 15.1895 17.981 15.2274 17.9431C15.2716 17.8989 15.4358 16.1684 15.3979 16.1305C15.3853 16.1179 13.3705 15.9095 10.92 15.6631C8.47578 15.4231 6.35999 15.2084 6.21473 15.1895L5.95578 15.1516L5.86736 16.1179Z" fill="black"/>
<path d="M5.6842 19.7368V20.7158H10.5474H15.4105V19.7368V18.7579H10.5474H5.6842V19.7368Z" fill="black"/>
</svg>
